<?xml version="1.0" encoding="utf-8"?>
<!-- Generator: Adobe Illustrator 21.0.0, SVG Export Plug-In . SVG Version: 6.00 Build 0)  -->
<svg version="1.1" id="Layer_1" xmlns="http://www.w3.org/2000/svg" xmlns:xlink="http://www.w3.org/1999/xlink" x="0px" y="0px"
	 viewBox="0 0 1920 1080" style="enable-background:new 0 0 1920 1080;" xml:space="preserve">
<style type="text/css">
	.st0{fill:#FFFF1C;}
	.st1{fill:#9ABA25;}
	.st2{fill:none;}
	.st3{fill:#9A9E25;}
	.st4{fill:#5C74FF;}
	.st5{fill:#6E05FF;}
	.st6{fill:#5C4BFF;}
	.st7{fill:#DA0025;}
	.st8{fill:#FF4CFF;}
	.st9{fill:#A70025;}
	.st10{fill:#E19825;}
	.st11{fill:#E15700;}
	.st12{fill:#FFDA1C;}
	.st13{fill:#FFFF70;}
</style>
<rect x="0" width="1920" height="1080"/>
<g>
	<polygon class="st0" points="610.8,369.6 618.7,362.2 614.1,372 623.5,377.2 612.8,375.8 610.8,386.4 608.8,375.8 598.1,377.2 
		607.6,372 602.9,362.2 	"/>
	<polygon class="st0" points="234.8,677.6 242.7,670.2 238.1,680 247.5,685.2 236.8,683.8 234.8,694.4 232.8,683.8 222.1,685.2 
		231.6,680 226.9,670.2 	"/>
	<polygon class="st0" points="174.8,190.6 182.7,183.2 178.1,193 187.5,198.2 176.8,196.8 174.8,207.4 172.8,196.8 162.1,198.2 
		171.6,193 166.9,183.2 	"/>
	<polygon class="st0" points="1028.8,242.6 1036.7,235.2 1032.1,245 1041.5,250.2 1030.8,248.8 1028.8,259.4 1026.8,248.8 
		1016.1,250.2 1025.6,245 1020.9,235.2 	"/>
	<polygon class="st0" points="1656.8,479.6 1664.7,472.2 1660.1,482 1669.5,487.2 1658.8,485.8 1656.8,496.4 1654.8,485.8 
		1644.1,487.2 1653.6,482 1648.9,472.2 	"/>
	<polygon class="st0" points="1511.8,128.6 1519.7,121.2 1515.1,131 1524.5,136.2 1513.8,134.8 1511.8,145.4 1509.8,134.8 
		1499.1,136.2 1508.6,131 1503.9,121.2 	"/>
	<polygon class="st0" points="610.8,787.6 618.7,780.2 614.1,790 623.5,795.2 612.8,793.8 610.8,804.4 608.8,793.8 598.1,795.2 
		607.6,790 602.9,780.2 	"/>
	<polygon class="st0" points="880.8,978.6 888.7,971.2 884.1,981 893.5,986.2 882.8,984.8 880.8,995.4 878.8,984.8 868.1,986.2 
		877.6,981 872.9,971.2 	"/>
	<polygon class="st0" points="1448.5,482.7 1456.4,475.3 1451.8,485.1 1461.2,490.3 1450.5,488.9 1448.5,499.5 1446.5,488.9 
		1435.8,490.3 1445.3,485.1 1440.6,475.3 	"/>
	<circle class="st0" cx="398.4" cy="706.1" r="1.6"/>
	<circle class="st0" cx="551.4" cy="576.1" r="1.6"/>
	<circle class="st0" cx="358.4" cy="346.1" r="1.6"/>
	<circle class="st0" cx="1188.4" cy="269.1" r="1.6"/>
	<circle class="st0" cx="984.4" cy="30.1" r="1.6"/>
	<circle class="st0" cx="1524.4" cy="325.1" r="1.6"/>
	<circle class="st0" cx="962.4" cy="760.1" r="1.6"/>
	<circle class="st0" cx="1192.4" cy="976.1" r="1.6"/>
	<circle class="st0" cx="222.4" cy="865.1" r="1.6"/>
	<circle class="st0" cx="589.4" cy="843.1" r="1.6"/>
	<circle class="st0" cx="833.4" cy="558.1" r="1.6"/>
	<circle class="st0" cx="1770.4" cy="818.1" r="1.6"/>
	<circle class="st0" cx="452.4" cy="153.1" r="1.6"/>
	<circle class="st0" cx="883.4" cy="361.1" r="1.6"/>
	<polygon class="st0" points="806.7,262.6 820.1,254 811.5,267.4 820.1,280.9 806.7,272.3 793.2,280.9 801.8,267.4 793.2,254 	"/>
	<polygon class="st0" points="732.7,490.6 746.1,482 737.5,495.4 746.1,508.9 732.7,500.3 719.2,508.9 727.8,495.4 719.2,482 	"/>
	<polygon class="st0" points="162.7,353.6 176.1,345 167.5,358.4 176.1,371.9 162.7,363.3 149.2,371.9 157.8,358.4 149.2,345 	"/>
	<polygon class="st0" points="1719.7,418.6 1733.1,410 1724.5,423.4 1733.1,436.9 1719.7,428.3 1706.2,436.9 1714.8,423.4 
		1706.2,410 	"/>
	<polygon class="st0" points="1667.7,155.6 1681.1,147 1672.5,160.4 1681.1,173.9 1667.7,165.3 1654.2,173.9 1662.8,160.4 
		1654.2,147 	"/>
	<polygon class="st0" points="1263.7,308.6 1277.1,300 1268.5,313.4 1277.1,326.9 1263.7,318.3 1250.2,326.9 1258.8,313.4 
		1250.2,300 	"/>
	<polygon class="st0" points="889.7,880.6 903.1,872 894.5,885.4 903.1,898.9 889.7,890.3 876.2,898.9 884.8,885.4 876.2,872 	"/>
	<polygon class="st0" points="510.7,963.6 524.1,955 515.5,968.4 524.1,981.9 510.7,973.3 497.2,981.9 505.8,968.4 497.2,955 	"/>
	<polygon class="st0" points="109.7,1003.6 123.1,995 114.5,1008.4 123.1,1021.9 109.7,1013.3 96.2,1021.9 104.8,1008.4 96.2,995 	
		"/>
	<polygon class="st0" points="1580.7,985.6 1594.1,977 1585.5,990.4 1594.1,1003.9 1580.7,995.3 1567.2,1003.9 1575.8,990.4 
		1567.2,977 	"/>
	<polygon class="st0" points="1801.8,663.6 1815.2,655 1806.6,668.4 1815.2,681.9 1801.8,673.3 1788.3,681.9 1796.9,668.4 
		1788.3,655 	"/>
</g>
<g>
	
		<ellipse transform="matrix(0.5253 -0.8509 0.8509 0.5253 -19.1336 1781.3447)" class="st1" cx="1586.9" cy="907.8" rx="108.5" ry="108.5"/>
	<path class="st1" d="M1692.7,932.5l-212.7-42.8c2.3-13.4,7.1-26.6,14.7-38.9c31.5-51,98.3-66.8,149.3-35.3
		C1684.7,840.6,1703,888.3,1692.7,932.5z"/>
	<line class="st2" x1="1692.7" y1="932.5" x2="1479.9" y2="889.7"/>
	<path class="st3" d="M1675.4,970.7c-32.8,46.3-96.5,59.7-145.5,29.5c-51-31.5-66.8-98.3-35.3-149.3c13.5-21.9,33.6-37.4,56.2-45.3
		c-10.7,15.4-25.3,45.8-10.5,83.1C1561.1,940.8,1627.6,975,1675.4,970.7z"/>
</g>
<g>
	
		<ellipse transform="matrix(0.3509 -0.9364 0.9364 0.3509 -751.6262 817.7062)" class="st4" cx="214" cy="951" rx="74.3" ry="74.3"/>
	<g>
		<path class="st5" d="M109.4,961c-2.7-1-5.1-2.1-7.2-3.1c-6.8-3.5-10.2-7.3-10.1-11.2c0.1-4,3.8-7.5,10.9-10.5
			c6.3-2.7,15.2-4.9,26.4-6.7c22.9-3.7,53.3-5.1,85.5-3.9c32.2,1.1,62.3,4.7,85,10c11.1,2.6,19.8,5.5,25.9,8.6
			c6.8,3.5,10.2,7.3,10.1,11.2l0,0c-0.1,4-3.8,7.5-10.9,10.5c-6.3,2.7-15.2,4.9-26.4,6.7c-22.9,3.7-53.3,5.1-85.5,3.9
			c-32.2-1.1-62.3-4.7-85-10C120.8,964.8,114.6,962.9,109.4,961z M317.2,944.3c-5-1.9-11.1-3.7-18.2-5.3
			c-22.4-5.2-52.3-8.8-84.3-9.9s-62,0.3-84.8,3.9c-11,1.8-19.6,3.9-25.6,6.5c-5.5,2.3-8.6,4.9-8.7,7.3c-0.1,2.4,2.8,5.2,8.1,7.9
			c5.8,3,14.2,5.8,25,8.3c22.4,5.2,52.3,8.8,84.3,9.9c31.9,1.1,62-0.3,84.8-3.9c11-1.8,19.6-3.9,25.6-6.5c5.5-2.3,8.6-4.9,8.7-7.3
			c0.1-2.4-2.8-5.2-8.1-7.9C322.1,946.3,319.8,945.3,317.2,944.3z"/>
	</g>
	<g>
		<path class="st5" d="M65.5,966.6c-2.8-1-5.3-2.1-7.6-3.2c-9.4-4.5-14.1-9.5-14.1-14.7c0.1-5.2,4.9-10.1,14.5-14.4
			c8.7-3.9,21-7.3,36.6-10.2c32-5.9,74.5-8.7,119.5-8.1c45.1,0.6,87.5,4.7,119.3,11.4c15.6,3.3,27.8,7.1,36.4,11.2
			c9.4,4.5,14.1,9.5,14.1,14.7c-0.1,5.2-4.9,10.1-14.5,14.4c-8.7,3.9-21,7.3-36.6,10.2c-32,5.9-74.5,8.7-119.5,8.1
			c-45.1-0.6-87.5-4.7-119.3-11.4C82.8,972.2,73.2,969.5,65.5,966.6z M361.2,938.7c-7.5-2.8-17-5.4-28.2-7.8
			c-31.6-6.7-73.7-10.7-118.6-11.3c-44.9-0.6-87.1,2.2-118.8,8.1c-15.4,2.8-27.4,6.1-35.8,9.9c-8,3.6-12.3,7.5-12.3,11.1
			c-0.1,3.7,4.1,7.6,12,11.4c8.3,4,20.3,7.7,35.5,10.9c31.6,6.7,73.7,10.7,118.6,11.3c44.9,0.6,87.1-2.2,118.9-8.1
			c15.4-2.8,27.4-6.1,35.8-9.9c8-3.6,12.3-7.5,12.3-11.1c0.1-3.7-4.1-7.6-12-11.4C366.3,940.8,363.9,939.7,361.2,938.7z"/>
	</g>
	<path class="st4" d="M288.2,953.6L139.7,953c-0.3-9.3,1.2-18.8,4.7-28.1c14.4-38.4,57.2-57.9,95.6-43.5
		C270.7,892.9,289.3,922.5,288.2,953.6z"/>
	<line class="st2" x1="288.2" y1="953.6" x2="139.7" y2="953"/>
	<path class="st6" d="M281.7,981.5c-15.9,35.4-56.9,52.9-93.8,39c-38.4-14.4-57.9-57.2-43.5-95.6c6.2-16.5,17.6-29.5,31.7-37.9
		c-5.1,11.8-10.9,34.1,4,57.2C201,976.6,250.2,990.7,281.7,981.5z"/>
	<path class="st5" d="M284.3,974.4c-20.6,2.2-45.3,3-71.2,2c-26-0.9-50.7-3.4-71.2-7.1c-0.3-1.3-0.6-2.5-0.9-3.8
		c20.6,3.8,45.7,6.4,72.2,7.4c26.4,0.9,51.5,0.2,72.2-2.2C285.1,971.9,284.7,973.2,284.3,974.4z"/>
	<g>
		<path class="st5" d="M282,980.5c-0.5,1.3-0.9,2.5-1.5,3.7c-20.8,1.5-43.6,2.1-66.9,1.8c-23.4-0.3-46.1-1.6-67-3.6
			c-0.3-0.6-0.6-1.2-0.8-1.9c-0.3-0.6-0.5-1.3-0.8-1.9c21.3,2.2,44.6,3.5,68.7,3.8C237.5,982.7,260.7,982,282,980.5z"/>
	</g>
</g>
<g>
	
		<ellipse transform="matrix(0.5253 -0.8509 0.8509 0.5253 622.9953 1423.9513)" class="st7" cx="1587.7" cy="153.6" rx="100.1" ry="100.1"/>
	<g>
		<path class="st8" d="M1446.8,139.6c-3.3-2-6.2-4-8.7-6c-8.1-6.4-11.6-12.3-10.4-17.5c1.2-5.2,7-8.9,17.1-11c9-1.9,21.3-2.6,36.7-2
			c31.3,1.1,71.8,7.2,114.1,17.1c42.3,9.9,81.3,22.4,109.8,35.4c14,6.3,24.7,12.4,32,18.1c8.1,6.4,11.6,12.3,10.4,17.5l0,0
			c-1.2,5.2-7,8.9-17.1,11c-9,1.9-21.3,2.6-36.7,2c-31.3-1.1-71.8-7.2-114.1-17.1c-42.3-9.9-81.3-22.4-109.8-35.4
			C1460.9,147.6,1453.1,143.5,1446.8,139.6z M1726,171.8c-6.1-3.8-13.7-7.7-22.7-11.8c-28.3-12.8-66.9-25.2-108.9-35
			s-82.1-15.8-113.1-16.9c-15-0.5-26.9,0.1-35.5,1.9c-7.9,1.6-12.6,4.3-13.4,7.4c-0.7,3.1,2.4,7.6,8.7,12.5
			c6.9,5.4,17.3,11.3,31,17.5c28.3,12.8,66.9,25.2,108.9,35c42,9.8,82.1,15.8,113.1,16.9c15,0.5,26.9-0.1,35.5-1.9
			c7.9-1.6,12.6-4.3,13.4-7.4c0.7-3.1-2.4-7.6-8.7-12.5C1731.9,175.6,1729.2,173.7,1726,171.8z"/>
	</g>
	<g>
		<path class="st8" d="M1387.2,135.6c-3.4-2.1-6.5-4.2-9.2-6.2c-11.3-8.5-16.2-16.3-14.8-23.2c1.5-6.9,9.2-12,22.9-15.2
			c12.5-2.9,29.7-4.2,51.1-3.9c43.9,0.6,100.8,7.9,160.3,20.4c59.5,12.6,114.5,29,154.8,46.2c19.7,8.4,34.9,16.6,45.2,24.3
			c11.3,8.5,16.2,16.3,14.8,23.2c-1.5,6.9-9.2,12-22.9,15.2c-12.5,2.9-29.7,4.2-51.1,3.9c-43.9-0.6-100.8-7.9-160.3-20.4
			c-59.5-12.6-114.5-29-154.8-46.2C1408.6,147.4,1396.6,141.4,1387.2,135.6z M1785.7,175.8c-9.2-5.7-21-11.6-35.3-17.7
			c-40.1-17.1-94.7-33.4-153.9-45.9c-59.2-12.5-115.8-19.7-159.3-20.3c-21.1-0.3-37.9,1-50,3.8c-11.6,2.7-18.2,6.7-19.2,11.5
			c-1,4.8,3.5,11.2,12.9,18.3c9.9,7.5,24.8,15.4,44.2,23.7c40.1,17.1,94.7,33.4,153.9,45.9c59.2,12.5,115.8,19.7,159.3,20.3
			c21.1,0.3,37.9-1,50-3.8c11.6-2.7,18.2-6.7,19.2-11.5c1-4.8-3.5-11.2-12.9-18.3C1791.9,179.8,1789,177.8,1785.7,175.8z"/>
	</g>
	<path class="st7" d="M1685.2,176.4l-196.3-39.5c2.1-12.4,6.6-24.6,13.6-35.9c29.1-47.1,90.8-61.7,137.8-32.6
		C1677.9,91.6,1694.8,135.6,1685.2,176.4z"/>
	<line class="st2" x1="1685.2" y1="176.4" x2="1488.9" y2="136.9"/>
	<path class="st9" d="M1669.3,211.6c-30.3,42.7-89,55.1-134.2,27.2c-47.1-29.1-61.7-90.8-32.6-137.8c12.5-20.2,31-34.5,51.9-41.8
		c-9.9,14.2-23.4,42.3-9.7,76.7C1563.9,184.1,1625.2,215.6,1669.3,211.6z"/>
	<path class="st8" d="M1674.6,202.9c-27.9-2.4-60.7-7.9-94.8-15.9c-34.2-8-66.2-17.8-92.3-28c-0.1-1.8-0.2-3.5-0.2-5.3
		c26.2,10.5,58.8,20.4,93.6,28.6c34.6,8.1,68.1,13.6,96.1,15.9C1676.3,199.8,1675.5,201.4,1674.6,202.9z"/>
	<g>
		<path class="st8" d="M1670.2,210.4c-1.1,1.5-2.1,3-3.3,4.5c-27.9-3.5-58.2-8.6-89-15.1c-30.9-6.5-60.6-14.1-87.6-22.3
			c-0.2-0.9-0.4-1.8-0.6-2.7c-0.2-0.9-0.4-1.8-0.6-2.7c27.6,8.4,58.1,16.2,89.8,22.9C1610.6,201.7,1641.7,206.9,1670.2,210.4z"/>
	</g>
</g>
<path class="st0" d="M337.9,404.8l427.7-275.3L343,412.5c-2.1,1.4-5,0.9-6.4-1.3C335.2,409.1,335.7,406.2,337.9,404.8
	C337.9,404.8,337.9,404.8,337.9,404.8z"/>
<path class="st0" d="M1654.3,840.9c-3.3,7-19.2,6.5-35.4-1.2c-16.2-7.7-26.7-19.6-23.3-26.7c3.3-7,19.2-6.5,35.4,1.2
	C1647.2,821.9,1657.7,833.8,1654.3,840.9z"/>
<ellipse transform="matrix(0.7624 -0.6471 0.6471 0.7624 -157.9814 1283.9121)" class="st0" cx="1669.4" cy="857.1" rx="7.1" ry="16.3"/>
<g>
	<g>
		<circle class="st10" cx="960" cy="540" r="165.4"/>
		<g>
			<path class="st0" d="M749.8,642.6c-6.4,0-12.2-0.3-17.4-0.9c-17-1.9-27-7.1-29.8-15.5c-2.8-8.4,2.1-18.6,14.5-30.3
				c11-10.5,27.8-22.1,49.8-34.7c45-25.6,107.2-52.2,175.2-75c68-22.8,133.7-39,185-45.6c25.2-3.2,45.6-4,60.6-2.3
				c17,1.9,27,7.1,29.8,15.5l0,0c2.8,8.4-2.1,18.6-14.5,30.3c-11,10.5-27.8,22.1-49.8,34.7c-45,25.6-107.2,52.2-175.2,75
				c-68,22.8-133.7,39-185,45.6C776.5,641.5,762,642.6,749.8,642.6z M1170.2,445.4c-11.9,0-26,1-42.2,3.1
				c-50.8,6.6-116,22.6-183.5,45.2c-67.5,22.6-129.2,49-173.7,74.4c-21.5,12.2-37.7,23.5-48.3,33.5c-9.7,9.2-14,16.9-12.4,21.9
				c1.7,5,9.9,8.6,23.1,10.1c14.4,1.6,34.2,0.9,58.7-2.3c50.8-6.6,116-22.6,183.5-45.2c67.5-22.6,129.2-49,173.7-74.4
				c21.5-12.2,37.7-23.5,48.3-33.5c9.7-9.2,14-16.9,12.4-21.9c-1.7-5-9.9-8.6-23.1-10.1C1181.8,445.7,1176.3,445.4,1170.2,445.4z"/>
		</g>
		<g>
			<path class="st0" d="M662.4,688.7c-6.6,0-12.7-0.3-18.3-0.8c-23.2-2.1-36.9-8.8-40.9-19.8c-3.9-11,2.4-24.9,19-41.3
				c15-14.9,38.1-31.7,68.5-49.9c62.2-37.2,148.5-76.4,243-110.4c94.5-33.9,186-58.6,257.7-69.5c35-5.3,63.5-7,84.6-5.1
				c23.2,2.1,36.9,8.8,40.9,19.8c3.9,11-2.4,24.9-19,41.3c-15,14.9-38.1,31.7-68.5,49.9c-62.2,37.2-148.5,76.4-243,110.4
				c-94.5,33.9-186,58.6-257.7,69.5C702.9,686.7,680.7,688.7,662.4,688.7z M1257.5,399.4c-17.9,0-39.6,1.9-65,5.8
				c-71.1,10.8-162.1,35.3-256.2,69.1c-94.1,33.8-179.9,72.7-241.6,109.7c-29.8,17.9-52.4,34.2-66.9,48.7
				c-13.9,13.8-19.8,25.1-17.1,32.8c2.8,7.7,14.5,12.7,34.1,14.5c20.4,1.9,48.2,0.2,82.6-5c71.1-10.8,162.1-35.3,256.2-69.1
				c94.1-33.8,179.9-72.7,241.6-109.7c29.8-17.9,52.4-34.2,66.9-48.7c13.9-13.8,19.8-25.1,17.1-32.8c-2.8-7.7-14.5-12.7-34.1-14.5
				C1269.8,399.6,1263.9,399.4,1257.5,399.4z"/>
		</g>
		<path class="st10" d="M1116.9,487.4L806.7,602.2c-7.8-19.2-12.1-40.2-12.1-62.2c0-91.4,74.1-165.4,165.4-165.4
			C1033,374.6,1094.9,421.8,1116.9,487.4z"/>
		<line class="st2" x1="1116.9" y1="487.4" x2="806.7" y2="602.2"/>
		<path class="st11" d="M1125.1,550.7c-5.5,86.4-77.3,154.7-165.1,154.7c-91.4,0-165.4-74.1-165.4-165.4
			c0-39.3,13.7-75.4,36.6-103.8c-1.5,28.6,3.9,79.7,53,116.2C952.9,603.5,1066.6,594.6,1125.1,550.7z"/>
		<path class="st0" d="M1125,533.9c-41.3,20.8-92.2,41.6-147,59.9c-55,18.4-108.5,32.5-154.1,40.8c-1.7-2.4-3.3-4.8-4.8-7.3
			c45.9-8.1,100.4-22.3,156.4-41.1c55.8-18.7,107.5-39.9,149-61C1124.7,528,1124.9,531,1125,533.9z"/>
		<g>
			<path class="st0" d="M1125.2,548.2c-0.1,3.1-0.4,6.1-0.7,9.2c-42.3,19.4-89.3,38.5-138.2,56c-49.1,17.6-97.4,32.8-142.5,44.8
				c-1.1-1.1-2.2-2.2-3.2-3.2c-1.1-1.1-2.1-2.2-3.2-3.4c46.1-12.1,95.7-27.6,146.2-45.7C1033.9,587.7,1082.1,568.1,1125.2,548.2z"/>
		</g>
	</g>
	
		<ellipse transform="matrix(0.9551 -0.2964 0.2964 0.9551 -133.4229 270.2015)" class="st0" cx="824.4" cy="575.1" rx="15.8" ry="31.8"/>
	
		<ellipse transform="matrix(0.9551 -0.2964 0.2964 0.9551 -138.112 281.2802)" class="st0" cx="858.6" cy="596.1" rx="5.7" ry="11.5"/>
</g>
<path class="st4" d="M157.3,933.1c-1.4,7.3-5.2,12.8-8.6,12.2c-3.4-0.6-5-7.1-3.6-14.4c1.4-7.3,5.2-12.8,8.6-12.2
	C157.1,919.3,158.7,925.8,157.3,933.1z"/>
<path class="st4" d="M155.4,950c-0.4,2.4-1.7,4.2-2.8,4c-1.1-0.2-1.6-2.3-1.2-4.7c0.4-2.4,1.7-4.2,2.8-4
	C155.3,945.5,155.8,947.6,155.4,950z"/>
<g>
	
		<ellipse transform="matrix(0.5253 -0.8509 0.8509 0.5253 -265.9367 619.6158)" class="st7" cx="422.4" cy="548.2" rx="25.6" ry="25.6"/>
	<path class="st9" d="M443.2,563c-7.8,10.9-22.8,14.1-34.4,7c-12-7.4-15.8-23.2-8.3-35.3c3.2-5.2,7.9-8.8,13.3-10.7
		c-2.5,3.6-6,10.8-2.5,19.6C416.3,556,432,564,443.2,563z"/>
</g>
<g>
	
		<ellipse transform="matrix(0.3509 -0.9364 0.9364 0.3509 202.7196 1728.578)" class="st4" cx="1348.1" cy="718.1" rx="36.2" ry="36.2"/>
	<path class="st6" d="M1381.2,732.9c-7.8,17.3-27.7,25.8-45.7,19c-18.7-7-28.2-27.9-21.2-46.6c3-8.1,8.6-14.4,15.5-18.5
		c-2.5,5.7-5.3,16.6,1.9,27.9C1341.8,730.5,1365.8,737.4,1381.2,732.9z"/>
	<ellipse transform="matrix(0.1839 -0.983 0.983 0.1839 378.5858 1873.5962)" class="st4" cx="1317.6" cy="708.8" rx="6.6" ry="3"/>
	
		<ellipse transform="matrix(0.1824 -0.9832 0.9832 0.1824 372.752 1883.0771)" class="st4" cx="1318.6" cy="717.4" rx="2.2" ry="1"/>
</g>
<path class="st0" d="M1277.7,1050.1l301.1-193.8l-297.5,199.2c-1.5,1-3.5,0.6-4.5-0.9C1275.7,1053.1,1276.1,1051.1,1277.7,1050.1
	C1277.6,1050.1,1277.7,1050.1,1277.7,1050.1z"/>
<g>
	
		<ellipse transform="matrix(0.5253 -0.8509 0.8509 0.5253 9.2204 459.9531)" class="st0" cx="416.8" cy="221.7" rx="82.4" ry="82.4"/>
	<path class="st12" d="M484,269.5c-24.9,35.2-73.3,45.3-110.5,22.4c-38.7-23.9-50.7-74.7-26.8-113.4c10.3-16.7,25.5-28.4,42.7-34.4
		c-8.1,11.7-19.2,34.8-8,63.1C397.2,246.8,447.7,272.7,484,269.5z"/>
</g>
<ellipse transform="matrix(0.429 -0.9033 0.9033 0.429 109.7151 494.1197)" class="st13" cx="445.7" cy="160.3" rx="10.7" ry="24.7"/>
<ellipse transform="matrix(0.7624 -0.6471 0.6471 0.7624 -4.624 353.7724)" class="st13" cx="479.4" cy="183.2" rx="5.4" ry="12.4"/>
<path class="st8" d="M1661.7,106.3c-4.7,4.7-15.6,1.4-24.4-7.3c-8.8-8.8-12-19.7-7.3-24.4c4.7-4.7,15.6-1.4,24.4,7.3
	C1663.2,90.6,1666.4,101.6,1661.7,106.3z"/>
</svg>
